<?xml version="1.0" standalone="no"?>
<!DOCTYPE svg PUBLIC "-//W3C//DTD SVG 20010904//EN"
 "http://www.w3.org/TR/2001/REC-SVG-20010904/DTD/svg10.dtd">
<svg version="1.0" xmlns="http://www.w3.org/2000/svg"
 width="1024.000000pt" height="768.000000pt" viewBox="0 0 1024.000000 768.000000"
 preserveAspectRatio="xMidYMid meet">

<g transform="translate(0.000000,768.000000) scale(0.100000,-0.100000)"
fill="#000000" stroke="none">
<path d="M1053 6243 c-20 -7 -19 -3049 1 -3056 8 -3 17 -3 20 0 3 4 6 668 6
1477 0 808 4 1466 8 1461 5 -6 258 -516 562 -1135 304 -619 854 -1737 1222
-2485 368 -748 676 -1367 683 -1375 11 -10 18 -11 26 -3 11 11 2 29 -1846
3783 -356 723 -653 1320 -659 1326 -6 7 -17 10 -23 7z"/>
<path d="M3375 6220 c-427 -67 -788 -330 -995 -722 -60 -115 -123 -299 -146
-433 -23 -133 -23 -367 0 -495 104 -589 516 -1028 1076 -1146 117 -25 372 -25
488 0 540 116 942 529 1067 1096 26 118 31 390 10 525 -33 216 -128 450 -255
628 -77 108 -241 266 -346 336 -142 94 -298 160 -464 196 -89 19 -350 28 -435
15z m-455 -840 l0 -130 120 0 120 0 0 -45 0 -45 -120 0 -120 0 0 -372 c0 -335
2 -377 18 -408 26 -53 71 -72 165 -68 l77 3 0 -46 0 -46 -46 -7 c-127 -17
-229 5 -281 61 -59 62 -63 94 -63 510 l0 373 -110 0 -110 0 0 45 0 45 110 0
110 0 0 130 0 130 65 0 65 0 0 -130z m1345 -134 c198 -52 315 -224 315 -463
l0 -53 -421 0 -422 0 5 -64 c9 -113 83 -238 176 -297 63 -40 142 -60 233 -60
122 0 203 28 280 98 42 38 49 38 103 -3 19 -14 19 -15 -15 -50 -79 -81 -190
-128 -329 -139 -281 -21 -513 136 -565 382 -44 207 6 395 140 528 127 126 313
171 500 121z"/>
<path d="M4010 5161 c-126 -39 -218 -140 -255 -281 l-13 -50 354 0 354 0 0 23
c0 39 -27 126 -53 170 -31 53 -94 104 -158 128 -51 20 -179 25 -229 10z"/>
<path d="M5417 5690 c-57 -15 -132 -56 -166 -92 -51 -54 -71 -123 -71 -243 l0
-105 -100 0 -100 0 0 -45 0 -45 100 0 100 0 0 -465 0 -465 65 0 65 0 0 465 0
465 140 0 140 0 0 45 0 45 -141 0 -141 0 4 98 c5 130 29 182 102 219 45 24 62
27 148 27 l96 0 4 44 c2 24 -1 46 -6 49 -17 11 -200 12 -239 3z"/>
<path d="M6830 4955 l0 -725 70 0 70 0 0 725 0 725 -70 0 -70 0 0 -725z"/>
<path d="M7580 4955 l0 -725 70 0 70 0 0 725 0 725 -70 0 -70 0 0 -725z"/>
<path d="M6085 5595 c-74 -73 45 -170 129 -104 34 27 36 77 3 107 -34 32 -100
30 -132 -3z"/>
<path d="M6080 4740 l0 -510 70 0 70 0 0 510 0 510 -70 0 -70 0 0 -510z"/>
</g>
</svg>
