<?xml version="1.0" standalone="no"?>
<!DOCTYPE svg PUBLIC "-//W3C//DTD SVG 20010904//EN"
 "http://www.w3.org/TR/2001/REC-SVG-20010904/DTD/svg10.dtd">
<svg version="1.0" xmlns="http://www.w3.org/2000/svg"
 width="1024.000000pt" height="768.000000pt" viewBox="0 0 1024.000000 768.000000"
 preserveAspectRatio="xMidYMid meet">

<g transform="translate(0.000000,768.000000) scale(0.100000,-0.100000)"
fill="#000000" stroke="none">
<path d="M1063 4715 l2 -1520 5 1498 5 1498 90 -180 c49 -99 91 -179 93 -177
2 2 -42 93 -97 202 l-100 199 2 -1520z"/>
<path d="M3392 6219 c-501 -65 -934 -432 -1101 -936 -143 -429 -79 -909 171
-1285 76 -114 254 -296 358 -365 157 -105 349 -184 520 -214 107 -19 355 -16
455 5 269 58 483 174 676 366 197 196 331 442 389 715 33 157 38 396 11 554
-54 318 -199 595 -424 808 -283 268 -680 401 -1055 352z m-472 -839 l0 -130
120 0 120 0 0 -45 0 -45 -120 0 -120 0 0 -372 c0 -335 2 -377 18 -408 26 -53
71 -72 165 -68 l77 3 0 -46 0 -46 -46 -7 c-127 -17 -229 5 -281 61 -59 62 -63
94 -63 510 l0 373 -110 0 -110 0 0 45 0 45 110 0 110 0 0 130 0 130 65 0 65 0
0 -130z m1345 -134 c198 -52 315 -224 315 -463 l0 -53 -421 0 -422 0 5 -64 c9
-113 83 -238 176 -297 63 -40 142 -60 233 -60 122 0 203 28 280 98 42 38 49
38 103 -3 19 -14 19 -15 -15 -50 -79 -81 -190 -128 -329 -139 -281 -21 -513
136 -565 382 -44 207 6 395 140 528 127 126 313 171 500 121z"/>
<path d="M4010 5161 c-126 -39 -218 -140 -255 -281 l-13 -50 354 0 354 0 0 23
c0 39 -27 126 -53 170 -31 53 -94 104 -158 128 -51 20 -179 25 -229 10z"/>
<path d="M5437 5690 c-32 -5 -81 -22 -108 -37 -107 -58 -149 -144 -149 -303
l0 -100 -100 0 -100 0 0 -45 0 -45 100 0 100 0 0 -465 0 -465 65 0 65 0 0 465
0 465 140 0 140 0 0 45 0 45 -140 0 -140 0 0 86 c0 48 5 105 12 127 28 94 129
145 265 133 l73 -6 0 45 c0 24 -5 47 -10 50 -18 11 -153 14 -213 5z"/>
<path d="M6830 4955 l0 -725 70 0 70 0 0 725 0 725 -70 0 -70 0 0 -725z"/>
<path d="M7580 4955 l0 -725 65 0 65 0 0 725 0 725 -65 0 -65 0 0 -725z"/>
<path d="M1341 5655 c0 -5 54 -116 119 -245 65 -129 119 -230 119 -225 0 6
-54 116 -119 245 -65 129 -119 231 -119 225z"/>
<path d="M6099 5607 c-17 -13 -39 -50 -39 -66 0 -5 12 -23 26 -40 32 -38 87
-43 128 -10 58 46 17 129 -63 129 -20 0 -43 -6 -52 -13z"/>
<path d="M6080 4740 l0 -510 70 0 70 0 0 510 0 510 -70 0 -70 0 0 -510z"/>
<path d="M1671 4985 c0 -5 51 -111 114 -235 63 -124 114 -220 114 -215 0 6
-51 111 -114 235 -63 124 -114 221 -114 215z"/>
<path d="M1991 4335 c0 -5 51 -111 114 -235 63 -124 114 -220 114 -215 0 6
-51 111 -114 235 -63 124 -114 221 -114 215z"/>
<path d="M2311 3685 c0 -5 51 -111 114 -235 63 -124 114 -220 114 -215 0 6
-51 111 -114 235 -63 124 -114 221 -114 215z"/>
<path d="M2631 3035 c0 -5 51 -111 114 -235 63 -124 114 -220 114 -215 0 6
-51 111 -114 235 -63 124 -114 221 -114 215z"/>
<path d="M2951 2385 c0 -5 51 -111 114 -235 63 -124 114 -220 114 -215 0 6
-51 111 -114 235 -63 124 -114 221 -114 215z"/>
<path d="M3271 1735 c0 -5 51 -111 114 -235 63 -124 114 -220 114 -215 0 6
-51 111 -114 235 -63 124 -114 221 -114 215z"/>
</g>
</svg>
